<svg xmlns="http://www.w3.org/2000/svg" width="493" height="364" fill="none"><path fill="#2BD9FC" d="M476.526 148.276c-8.912 0-16.133 7.222-16.133 16.134v63.981l-73.524 78.194.277-43.822c0-8.389-6.807-15.196-15.196-15.196H89.365c-32.021 0-57.098-23.279-57.098-53.011V85.262c0-15.933 5.563-53.01 57.021-53.01L387.3 33.604c8.573 0 17.086.615 26.013 1.875 11.862 1.675 22.787 3.918 31.115 9.741l-65.426 64.197c-7.298-10.018-17.87-17.547-30.07-20.882-32.789-8.942-63.413 13.506-68.391 43.853h-82.666c-.307-1.721-.66-3.442-1.137-5.178-5.101-18.684-20.005-33.589-38.69-38.675-40.795-11.124-78.256 26.352-67.116 67.147 5.102 18.684 20.006 33.589 38.69 38.69 31.177 8.512 60.371-11.37 67.47-39.412h84.571c.061.246.107.476.169.722 5.101 18.684 20.005 33.589 38.69 38.69 35.002 9.557 67.515-16.671 69.036-50.076l70.343-69.021c.015.077.015.154.015.23l16.534-16.533c6.76-6.76 7.529-17.424 1.905-25.168-17.578-24.216-46.726-28.334-60.509-30.27-10.433-1.475-20.421-2.182-30.439-2.182L89.365 0c-27.72 0-50.813 8.728-66.778 25.23C7.806 40.503 0 61.277 0 85.278v109.309c0 22.971 9.265 44.452 26.075 60.494 16.733 15.98 39.212 24.769 63.29 24.769h265.237v67.454a16.134 16.134 0 0 0 16.134 16.133 16.08 16.08 0 0 0 11.754-5.086l105.791-112.505a16.145 16.145 0 0 0 4.379-11.048v-70.373c0-8.927-7.222-16.149-16.134-16.149Zm-340.619 22.679c-10.418-2.842-18.731-11.155-21.573-21.573-6.208-22.756 14.674-43.653 37.43-37.445 10.418 2.842 18.73 11.155 21.573 21.573 6.223 22.771-14.674 43.668-37.43 37.445Zm190.899 0c-10.418-2.842-18.73-11.155-21.573-21.573-6.207-22.756 14.674-43.653 37.43-37.445 10.418 2.842 18.731 11.155 21.573 21.573 6.223 22.771-14.674 43.668-37.43 37.445Z"/></svg>